M48
;DRILL file {kicad (2015-01-16 BZR 5376)-product} date 9/1/2016 3:58:12 PM
;FORMAT={-:-/ absolute / inch / decimal}
FMAT,2
INCH,TZ
T1C0.032
T2C0.032
T3C0.038
T4C0.039
T5C0.039
T6C0.040
T7C0.043
T8C0.045
T9C0.051
T10C0.055
T11C0.060
T12C0.091
T13C0.117
T14C0.118
T15C0.120
%
G90
G05
M72
T1
X7.0624Y-1.3325
X7.0624Y-1.9325
X7.1624Y-1.3325
X7.1624Y-1.9325
X7.2624Y-1.3325
X7.2624Y-1.9325
X7.3624Y-1.3325
X7.3624Y-1.9325
X7.4624Y-1.3325
X7.4624Y-1.9325
X7.5624Y-1.3325
X7.5624Y-1.9325
X7.6624Y-1.3325
X7.6624Y-1.9325
X7.7624Y-1.3325
X7.7624Y-1.9325
X7.8624Y-1.3325
X7.8624Y-1.9325
X7.9624Y-1.3325
X7.9624Y-1.9325
X8.0624Y-1.3325
X8.0624Y-1.9325
X8.1624Y-1.3325
X8.1624Y-1.9325
X8.2624Y-1.3325
X8.2624Y-1.9325
X8.3624Y-1.3325
X8.3624Y-1.9325
X8.4624Y-1.3325
X8.4624Y-1.9325
X8.5624Y-1.3325
X8.5624Y-1.9325
X8.6624Y-1.3325
X8.6624Y-1.9325
X8.7624Y-1.3325
X8.7624Y-1.9325
X8.8624Y-1.3325
X8.8624Y-1.9325
X8.9624Y-1.3325
X8.9624Y-1.9325
T2
X2.4124Y-4.1575
X2.414Y-3.8506
X2.4374Y-4.4575
X2.4374Y-4.7575
X2.4374Y-4.9075
X2.4774Y-1.6375
X2.4874Y-3.3575
X2.4874Y-3.4575
X2.5124Y-3.6825
X2.5124Y-4.0575
X2.5174Y-4.3275
X2.5374Y-4.4575
X2.5374Y-4.7575
X2.5374Y-4.9075
X2.5774Y-1.6375
X2.6108Y-3.8506
X2.6124Y-4.1575
X2.6137Y-2.0675
X2.6137Y-2.1675
X2.6374Y-3.4675
X2.6374Y-4.4575
X2.6374Y-4.7575
X2.6874Y-4.9075
X2.6924Y-2.0675
X2.6924Y-2.1675
X2.7074Y-1.6375
X2.7124Y-3.3325
X2.7124Y-3.7325
X2.7374Y-4.4575
X2.7374Y-4.7575
X2.7674Y-2.7275
X2.7874Y-4.9075
X2.8274Y-2.5475
X2.849Y-3.1559
X2.8574Y-3.4575
X2.8574Y-3.5575
X2.8574Y-3.6575
X2.8574Y-3.7575
X2.8574Y-3.8575
X2.8574Y-3.9575
X2.8574Y-4.0575
X2.8574Y-4.1575
X2.8774Y-2.4675
X2.89Y-1.75
X2.9124Y-4.4325
X2.9124Y-4.8325
X2.9474Y-3.0075
X2.99Y-1.75
X2.9974Y-6.3575
X3.0124Y-4.4325
X3.0124Y-4.8325
X3.0458Y-3.1559
X3.0974Y-6.3575
X3.1074Y-1.6375
X3.1624Y-3.5075
X3.1624Y-3.6075
X3.1624Y-3.7075
X3.1624Y-3.8075
X3.1624Y-3.9075
X3.1624Y-4.0075
X3.1624Y-4.1075
X3.1624Y-4.2075
X3.1624Y-4.3075
X3.1624Y-4.4075
X3.1624Y-4.5075
X3.1624Y-4.6075
X3.1624Y-4.7075
X3.1624Y-4.8075
X3.2074Y-3.0575
X3.21Y-2.55
X3.26Y-5.19
X3.3074Y-3.0575
X3.31Y-2.55
X3.3374Y-5.7075
X3.3374Y-5.8075
X3.4074Y-3.0575
X3.4074Y-6.6675
X3.4074Y-6.7675
X3.4374Y-5.7075
X3.5574Y-3.0575
X3.5874Y-5.5975
X3.5874Y-5.6975
X3.5874Y-5.7975
X3.5874Y-5.8975
X3.6374Y-5.1675
X3.6374Y-5.2775
X3.6374Y-5.3875
X3.6474Y-6.0475
X3.6474Y-6.1475
X3.6574Y-3.0575
X3.7374Y-5.1675
X3.7374Y-5.2775
X3.7374Y-5.3875
X3.7574Y-3.0575
X3.7624Y-3.5075
X3.7624Y-3.6075
X3.7624Y-3.7075
X3.7624Y-3.8075
X3.7624Y-3.9075
X3.7624Y-4.0075
X3.7624Y-4.1075
X3.7624Y-4.2075
X3.7624Y-4.3075
X3.7624Y-4.4075
X3.7624Y-4.5075
X3.7624Y-4.6075
X3.7624Y-4.7075
X3.7624Y-4.8075
X3.8374Y-5.1675
X3.8374Y-5.2775
X3.8374Y-5.3875
X3.8574Y-3.0575
X3.9374Y-5.1675
X3.9374Y-5.2775
X3.9374Y-5.3875
X3.9574Y-3.0575
X3.9874Y-5.5975
X3.9874Y-5.6975
X3.9874Y-5.7975
X3.9874Y-5.8975
X4.0374Y-5.1675
X4.0374Y-5.2775
X4.0374Y-5.3875
X4.0474Y-6.0475
X4.0474Y-6.1475
X4.0574Y-3.0575
X4.1074Y-3.4475
X4.1074Y-3.5475
X4.1074Y-3.6475
X4.1074Y-3.7475
X4.1074Y-3.8475
X4.1074Y-3.9475
X4.1074Y-4.0475
X4.1074Y-4.2075
X4.1074Y-4.3075
X4.1074Y-4.4075
X4.1074Y-4.5075
X4.1074Y-4.6075
X4.1074Y-4.7075
X4.1074Y-4.8075
X4.1074Y-4.9075
X4.1574Y-3.0575
X4.2474Y-4.1575
X4.2574Y-3.0575
X4.3074Y-4.3075
X4.3074Y-4.4075
X4.3074Y-4.5075
X4.3074Y-4.6075
X4.3074Y-4.7075
X4.3074Y-4.8075
X4.3074Y-4.9075
X4.3074Y-5.0075
X4.3074Y-5.2875
X4.3074Y-5.3875
X4.3074Y-5.4875
X4.3074Y-5.5875
X4.3074Y-5.6875
X4.3074Y-5.7875
X4.3074Y-5.8875
X4.3074Y-5.9875
X4.3674Y-6.2975
X4.3674Y-6.6575
X4.5274Y-2.9575
X4.5674Y-6.2975
X4.5674Y-6.6575
X4.6974Y-5.1075
X4.6974Y-5.2075
X4.6974Y-5.3075
X4.6974Y-5.4075
X4.6974Y-5.5075
X4.6974Y-5.6075
X4.6974Y-5.7075
X4.6974Y-5.8075
X4.6974Y-5.9075
X4.8274Y-6.3675
X4.9124Y-1.4075
X4.9274Y-6.6275
X4.9274Y-6.7275
X5.1474Y-6.6575
X5.3124Y-1.4075
X5.3474Y-6.6575
X5.5874Y-6.6275
X5.5874Y-6.7275
X5.8274Y-4.3075
X5.8274Y-4.4075
X5.8274Y-4.5075
X5.8274Y-4.6075
X5.8274Y-4.7075
X5.8274Y-4.8075
X5.8274Y-4.9075
X5.8274Y-5.0075
X5.8274Y-5.1075
X5.8274Y-5.4075
X5.8274Y-5.5075
X5.8274Y-5.6075
X5.8274Y-5.7075
X5.8274Y-5.8075
X5.8274Y-5.9075
X5.8274Y-6.0075
X5.8274Y-6.1075
X5.8274Y-6.2075
X6.2274Y-4.3075
X6.2274Y-4.4075
X6.2274Y-4.5075
X6.2274Y-4.6075
X6.2274Y-4.7075
X6.2274Y-4.8075
X6.2274Y-4.9075
X6.2274Y-5.0075
X6.2274Y-5.2875
X6.2274Y-5.3875
X6.2274Y-5.4875
X6.2274Y-5.5875
X6.2274Y-5.6875
X6.2274Y-5.7875
X6.2274Y-5.8875
X6.2274Y-5.9875
X6.4274Y-4.3775
X6.4274Y-4.4775
X6.4274Y-4.5775
X6.4274Y-5.6175
X6.4274Y-5.9575
X6.4274Y-6.2975
X6.4274Y-6.6575
X6.4674Y-3.1575
X6.6274Y-2.7975
X6.6274Y-5.6175
X6.6274Y-5.9575
X6.6274Y-6.2975
X6.6274Y-6.6575
X6.6574Y-4.7275
X6.6574Y-5.0275
X6.6874Y-1.3075
X6.6874Y-1.4075
X6.6874Y-1.5075
X6.6874Y-1.6075
X6.6874Y-1.7075
X6.6874Y-1.8075
X6.6874Y-1.9075
X6.6874Y-2.0075
X6.6874Y-2.1575
X6.6874Y-2.2575
X6.6874Y-2.3575
X6.6874Y-2.4575
X6.7574Y-3.0075
X6.7574Y-4.7275
X6.7574Y-5.0275
X6.7774Y-5.2775
X6.8274Y-5.6175
X6.8274Y-5.9575
X6.8274Y-6.2975
X6.8274Y-6.6575
X6.8574Y-3.0075
X6.8574Y-3.1075
X6.8574Y-4.7275
X6.8574Y-5.0275
X6.8774Y-5.2775
X6.9124Y-2.0575
X6.9124Y-2.4575
X6.9574Y-4.7275
X6.9574Y-5.0275
X6.9774Y-5.2775
X7.0124Y-2.4575
X7.0124Y-4.4575
X7.0124Y-4.5575
X7.0274Y-2.7975
X7.0274Y-5.6175
X7.0274Y-5.9575
X7.0274Y-6.2975
X7.0274Y-6.6575
X7.0774Y-5.2775
X7.1774Y-5.2775
X7.1874Y-2.2325
X7.1874Y-2.3325
X7.2124Y-4.7325
X7.2124Y-5.0325
X7.2274Y-5.6175
X7.2274Y-5.9575
X7.2274Y-6.2975
X7.2274Y-6.6575
X7.2774Y-5.2775
X7.2874Y-2.2325
X7.3124Y-4.7325
X7.3124Y-5.0325
X7.3674Y-3.0875
X7.3674Y-3.1875
X7.3774Y-5.2775
X7.4124Y-2.4575
X7.4124Y-4.7325
X7.4124Y-5.0325
X7.4274Y-5.6175
X7.4274Y-5.9575
X7.4274Y-6.2975
X7.4274Y-6.6575
X7.4574Y-2.8375
X7.4574Y-3.4775
X7.4674Y-2.6175
X7.4674Y-3.6775
X7.4774Y-5.2775
X7.5124Y-2.0575
X7.5124Y-2.4575
X7.5124Y-4.7325
X7.5124Y-5.0325
X7.5574Y-2.8375
X7.5574Y-3.4775
X7.5874Y-1.6575
X7.6124Y-2.4575
X7.6274Y-5.6175
X7.6274Y-5.9575
X7.6274Y-6.2975
X7.6274Y-6.6575
X7.6624Y-4.6825
X7.6624Y-5.0825
X7.6874Y-2.9575
X7.6874Y-3.3575
X7.7174Y-2.8075
X7.7174Y-3.5075
X7.7374Y-2.2075
X7.7374Y-2.3075
X7.7474Y-1.7375
X7.7624Y-4.6825
X7.7624Y-5.0825
X7.8174Y-2.8075
X7.8174Y-2.9075
X7.8174Y-3.2475
X7.8174Y-3.4075
X7.8174Y-3.5075
X7.8274Y-5.6175
X7.8274Y-5.9575
X7.8274Y-6.2975
X7.8274Y-6.6575
X7.8374Y-2.2075
X7.8674Y-2.6175
X7.8674Y-3.6775
X8.0124Y-2.4575
X8.0474Y-4.2475
X8.0474Y-4.3475
X8.0474Y-4.4475
X8.0474Y-4.5475
X8.0474Y-4.6475
X8.0474Y-4.7475
X8.0474Y-4.8475
X8.0474Y-4.9475
X8.0674Y-5.7075
X8.0674Y-5.8075
X8.0674Y-5.9075
X8.0674Y-6.0075
X8.1074Y-1.6375
X8.1124Y-2.0575
X8.1124Y-2.4575
X8.2074Y-1.7375
X8.2124Y-2.4575
X8.2674Y-4.1475
X8.2674Y-4.2475
X8.2674Y-4.3475
X8.2674Y-4.4475
X8.2674Y-4.5475
X8.2674Y-4.6475
X8.2674Y-4.7475
X8.2674Y-4.8475
X8.2674Y-4.9475
X8.3624Y-2.2075
X8.3624Y-2.3075
X8.4374Y-5.5275
X8.4374Y-5.6275
X8.4374Y-5.7275
X8.4374Y-5.8275
X8.4374Y-5.9275
X8.4374Y-6.0275
X8.4374Y-6.1275
X8.4374Y-6.2275
X8.4624Y-2.2075
X8.5474Y-1.6575
X8.6124Y-2.4575
X8.6474Y-1.7575
X8.7074Y-2.0575
X8.7074Y-2.4575
X8.7374Y-5.5275
X8.7374Y-5.6275
X8.7374Y-5.7275
X8.7374Y-5.8275
X8.7374Y-5.9275
X8.7374Y-6.0275
X8.7374Y-6.1275
X8.7374Y-6.2275
X8.8124Y-2.4575
X8.9274Y-4.2575
X8.9274Y-4.6575
X8.9274Y-4.8475
X8.9274Y-4.9475
X8.9274Y-5.0475
X8.9274Y-5.1475
X8.9274Y-5.2475
X8.9274Y-5.3475
X8.9274Y-5.4475
X8.9274Y-5.5475
X8.9624Y-2.2325
X8.9624Y-2.3325
X9.0624Y-2.2325
X9.1174Y-4.4375
X9.1174Y-4.7375
X9.1174Y-5.0375
X9.1174Y-5.3375
X9.1174Y-5.6375
X9.1174Y-5.9375
X9.1174Y-6.2375
X9.1232Y-4.1339
X9.2124Y-2.4575
X9.2174Y-4.4375
X9.2174Y-4.7375
X9.2174Y-5.0375
X9.2174Y-5.3375
X9.2174Y-5.6375
X9.2174Y-5.9375
X9.2174Y-6.2375
X9.2232Y-4.1339
T3
X8.4374Y-4.2475
X8.4374Y-4.3475
X8.4374Y-4.4475
X8.4374Y-4.5475
X8.4374Y-4.6475
X8.4374Y-4.7475
X8.4374Y-4.8475
X8.4374Y-4.9475
X8.7374Y-4.2475
X8.7374Y-4.3475
X8.7374Y-4.4475
X8.7374Y-4.5475
X8.7374Y-4.6475
X8.7374Y-4.7475
X8.7374Y-4.8475
X8.7374Y-4.9475
T4
X2.5374Y-2.6575
X2.5374Y-2.7575
X2.5374Y-2.8575
X2.5374Y-2.9575
X2.5374Y-3.0575
X2.6374Y-2.6575
X2.6374Y-2.7575
X2.6374Y-2.8575
X2.6374Y-2.9575
X2.6374Y-3.0575
X3.1709Y-1.378
X3.2709Y-1.378
X3.3709Y-1.378
X3.4709Y-1.378
X3.5709Y-1.378
X3.6709Y-1.378
X3.7709Y-1.378
X3.8709Y-1.378
X3.9709Y-1.378
X4.0709Y-1.378
X4.1709Y-1.378
X4.2709Y-1.378
X4.3709Y-1.378
X4.4709Y-1.378
X4.5709Y-1.378
X4.6709Y-1.378
T5
X6.6774Y-3.4775
X6.9774Y-3.4775
T6
X2.5674Y-5.8775
X2.7674Y-5.8775
X3.59Y-5.5
X3.99Y-5.5
X4.9674Y-4.3075
X4.9674Y-4.4075
X4.9674Y-4.5075
X4.9674Y-4.6075
X4.9674Y-4.7075
X4.9674Y-4.8075
X4.9674Y-4.9075
X4.9674Y-5.0075
X4.9674Y-5.1075
X4.9674Y-5.2075
X4.9674Y-5.3075
X4.9674Y-5.4075
X4.9674Y-5.5075
X4.9674Y-5.6075
X4.9674Y-5.7075
X4.9674Y-5.8075
X4.9674Y-5.9075
X4.9674Y-6.0075
X4.9674Y-6.1075
X4.9674Y-6.2075
X5.5674Y-4.3075
X5.5674Y-4.4075
X5.5674Y-4.5075
X5.5674Y-4.6075
X5.5674Y-4.7075
X5.5674Y-4.8075
X5.5674Y-4.9075
X5.5674Y-5.0075
X5.5674Y-5.1075
X5.5674Y-5.2075
X5.5674Y-5.3075
X5.5674Y-5.4075
X5.5674Y-5.5075
X5.5674Y-5.6075
X5.5674Y-5.7075
X5.5674Y-5.8075
X5.5674Y-5.9075
X5.5674Y-6.0075
X5.5674Y-6.1075
X5.5674Y-6.2075
X8.0074Y-2.5975
X8.0074Y-2.9975
X8.0074Y-3.2775
X8.0074Y-3.6775
T7
X2.8972Y-6.6775
X3.0074Y-6.6775
X3.1174Y-6.6775
X3.1918Y-6.1375
X3.3403Y-6.3001
X3.3474Y-5.9819
X3.503Y-6.1375
T8
X2.9874Y-5.2175
X2.9874Y-5.3175
X2.9874Y-5.4175
T9
X7.025Y-4.1825
X7.8124Y-4.1825
T10
X3.6124Y-6.4825
X3.6124Y-6.6825
X4.1124Y-6.4825
X4.1124Y-6.6825
T11
X8.0874Y-6.6575
X8.1524Y-2.8375
X8.1524Y-3.4575
X8.2312Y-2.6013
X8.2312Y-3.0737
X8.2312Y-3.2213
X8.2312Y-3.6937
X8.2874Y-6.6575
X8.5074Y-6.6575
X8.7036Y-2.6013
X8.7036Y-3.0737
X8.7036Y-3.2213
X8.7036Y-3.6937
X8.7074Y-6.6575
X9.0274Y-2.6375
X9.0274Y-2.8375
X9.0274Y-3.0375
X9.0274Y-3.2575
X9.0274Y-3.4575
X9.0274Y-3.6575
T12
X2.5074Y-1.8813
X2.5074Y-2.3537
T13
X2.7512Y-5.4946
T14
X2.7512Y-5.1403
T15
X2.5197Y-1.378
X2.5197Y-6.6929
X2.955Y-1.3775
X5.9075Y-1.3775
X5.9075Y-2.5975
X5.9449Y-3.937
X9.1732Y-1.378
X9.1732Y-6.6929
T6
X2.5474Y-6.2675G85X2.5474Y-6.3275
G05
X2.6074Y-6.4975G85X2.6674Y-6.4975
G05
X2.7874Y-6.2675G85X2.7874Y-6.3275
G05
T0
M30
