G04 #@! TF.FileFunction,Soldermask,Bot*
%FSLAX46Y46*%
G04 Gerber Fmt 4.6, Leading zero omitted, Abs format (unit mm)*
G04 Created by KiCad (PCBNEW (2015-01-16 BZR 5376)-product) date 9/1/2016 3:57:13 PM*
%MOMM*%
G01*
G04 APERTURE LIST*
%ADD10C,0.150000*%
%ADD11C,0.381000*%
%ADD12C,0.254000*%
%ADD13R,3.302000X2.082800*%
%ADD14O,3.302000X2.082800*%
%ADD15C,1.905000*%
%ADD16C,2.159000*%
%ADD17C,2.032000*%
%ADD18C,3.508000*%
%ADD19C,5.308600*%
%ADD20R,5.308600X5.308600*%
%ADD21R,2.286000X2.286000*%
%ADD22O,2.540000X2.159000*%
%ADD23R,2.032000X2.032000*%
%ADD24C,2.286000*%
%ADD25R,2.794000X2.082800*%
%ADD26O,2.794000X2.082800*%
%ADD27C,2.184400*%
%ADD28O,2.159000X2.540000*%
%ADD29O,3.556000X2.308000*%
%ADD30C,2.508000*%
%ADD31O,3.462020X1.983740*%
%ADD32O,2.438400X4.368800*%
%ADD33C,2.387600*%
%ADD34C,4.572000*%
%ADD35R,2.540000X2.540000*%
%ADD36C,2.540000*%
%ADD37O,2.308000X3.008000*%
%ADD38C,4.318000*%
%ADD39C,4.308000*%
%ADD40C,3.048000*%
%ADD41R,2.108000X2.108000*%
%ADD42C,2.108000*%
%ADD43R,1.905000X1.905000*%
%ADD44R,3.048000X3.048000*%
%ADD45R,2.082800X2.794000*%
%ADD46O,2.082800X2.794000*%
%ADD47C,2.456180*%
G04 APERTURE END LIST*
D10*
D11*
X59500000Y-34500000D02*
X59500000Y-168500000D01*
X232000000Y-29500000D02*
X65500000Y-29500000D01*
X237500000Y-169000000D02*
X237500000Y-35000000D01*
X64500000Y-174500000D02*
X232000000Y-174500000D01*
X59500000Y-168500000D02*
G75*
G03X64500000Y-174500000I5500000J-500000D01*
G01*
X65500000Y-29500000D02*
G75*
G03X59500000Y-34500000I-500000J-5500000D01*
G01*
X237500000Y-35000000D02*
G75*
G03X232000000Y-29500000I-5500000J0D01*
G01*
X232000000Y-174500000D02*
G75*
G03X237500000Y-169000000I0J5500000D01*
G01*
D12*
X235564191Y-47891143D02*
X235419048Y-47963714D01*
X235370667Y-48036286D01*
X235322286Y-48181429D01*
X235322286Y-48399143D01*
X235370667Y-48544286D01*
X235419048Y-48616857D01*
X235515810Y-48689429D01*
X235902857Y-48689429D01*
X235902857Y-47165429D01*
X235564191Y-47165429D01*
X235467429Y-47238000D01*
X235419048Y-47310571D01*
X235370667Y-47455714D01*
X235370667Y-47600857D01*
X235419048Y-47746000D01*
X235467429Y-47818571D01*
X235564191Y-47891143D01*
X235902857Y-47891143D01*
X234886857Y-48108857D02*
X234112762Y-48108857D01*
X233628952Y-48689429D02*
X233628952Y-47165429D01*
X233290286Y-48254000D01*
X232951619Y-47165429D01*
X232951619Y-48689429D01*
X232516190Y-48254000D02*
X232032381Y-48254000D01*
X232612952Y-48689429D02*
X232274285Y-47165429D01*
X231935619Y-48689429D01*
X231645333Y-48616857D02*
X231500190Y-48689429D01*
X231258286Y-48689429D01*
X231161524Y-48616857D01*
X231113143Y-48544286D01*
X231064762Y-48399143D01*
X231064762Y-48254000D01*
X231113143Y-48108857D01*
X231161524Y-48036286D01*
X231258286Y-47963714D01*
X231451809Y-47891143D01*
X231548571Y-47818571D01*
X231596952Y-47746000D01*
X231645333Y-47600857D01*
X231645333Y-47455714D01*
X231596952Y-47310571D01*
X231548571Y-47238000D01*
X231451809Y-47165429D01*
X231209905Y-47165429D01*
X231064762Y-47238000D01*
X230629333Y-48689429D02*
X230629333Y-47165429D01*
X230048762Y-48689429D02*
X230484190Y-47818571D01*
X230048762Y-47165429D02*
X230629333Y-48036286D01*
D13*
X126172000Y-109410000D03*
D14*
X126172000Y-111950000D03*
X126172000Y-114490000D03*
X126172000Y-117030000D03*
X126172000Y-119570000D03*
X126172000Y-122110000D03*
X126172000Y-124650000D03*
X126172000Y-127190000D03*
X126172000Y-129730000D03*
X126172000Y-132270000D03*
X126172000Y-134810000D03*
X126172000Y-137350000D03*
X126172000Y-139890000D03*
X126172000Y-142430000D03*
X126172000Y-144970000D03*
X126172000Y-147510000D03*
X126172000Y-150050000D03*
X126172000Y-152590000D03*
X126172000Y-155130000D03*
X126172000Y-157670000D03*
X141412000Y-157670000D03*
X141412000Y-155130000D03*
X141412000Y-152590000D03*
X141412000Y-150050000D03*
X141412000Y-147510000D03*
X141412000Y-144970000D03*
X141412000Y-142430000D03*
X141412000Y-139890000D03*
X141412000Y-137350000D03*
X141412000Y-134810000D03*
X141412000Y-132270000D03*
X141412000Y-129730000D03*
X141412000Y-127190000D03*
X141412000Y-124650000D03*
X141412000Y-122110000D03*
X141412000Y-119570000D03*
X141412000Y-117030000D03*
X141412000Y-114490000D03*
X141412000Y-111950000D03*
X141412000Y-109410000D03*
D15*
X178115000Y-115760000D03*
X178115000Y-113220000D03*
D16*
X61315000Y-97805000D03*
X63815000Y-93535000D03*
X66315000Y-97805000D03*
X72364000Y-80160000D03*
X74864000Y-76390000D03*
X77364000Y-80160000D03*
D17*
X68387000Y-55054000D03*
X68387000Y-52514000D03*
X66388020Y-52514000D03*
X66388020Y-55054000D03*
D18*
X63688000Y-59783480D03*
X63688000Y-47784520D03*
D19*
X64704000Y-159956000D03*
D20*
X70800000Y-159956000D03*
D19*
X66990000Y-165036000D03*
D21*
X119314000Y-129730000D03*
D22*
X119314000Y-132270000D03*
X119314000Y-134810000D03*
X119314000Y-137350000D03*
X119314000Y-139890000D03*
X119314000Y-142430000D03*
X119314000Y-144970000D03*
X119314000Y-147510000D03*
X119314000Y-150050000D03*
D21*
X148016000Y-137350000D03*
D22*
X148016000Y-139890000D03*
X148016000Y-142430000D03*
X148016000Y-144970000D03*
X148016000Y-147510000D03*
X148016000Y-150050000D03*
X148016000Y-152590000D03*
X148016000Y-155130000D03*
X148016000Y-157670000D03*
D16*
X206055000Y-52260000D03*
X206055000Y-62420000D03*
X190815000Y-52260000D03*
X190815000Y-62420000D03*
D17*
X168336000Y-71056000D03*
X178496000Y-71056000D03*
D16*
X175575000Y-52260000D03*
X175575000Y-62420000D03*
D21*
X209992000Y-105346000D03*
D22*
X209992000Y-107886000D03*
X209992000Y-110426000D03*
X209992000Y-112966000D03*
X209992000Y-115506000D03*
X209992000Y-118046000D03*
X209992000Y-120586000D03*
X209992000Y-123126000D03*
D15*
X209992000Y-125666000D03*
D16*
X64450000Y-124650000D03*
X61910000Y-124650000D03*
X70800000Y-124650000D03*
X68260000Y-124650000D03*
X125156000Y-170878000D03*
X125156000Y-168338000D03*
X141920000Y-170878000D03*
X141920000Y-168338000D03*
D23*
X78674000Y-161480000D03*
D16*
X76134000Y-161480000D03*
D21*
X65212000Y-149288000D03*
D24*
X70292000Y-149288000D03*
X203388000Y-83248000D03*
D21*
X203388000Y-93408000D03*
D25*
X214310000Y-140398000D03*
D26*
X214310000Y-142938000D03*
X214310000Y-145478000D03*
X214310000Y-148018000D03*
X214310000Y-150558000D03*
X214310000Y-153098000D03*
X214310000Y-155638000D03*
X214310000Y-158178000D03*
X221930000Y-158178000D03*
X221930000Y-155638000D03*
X221930000Y-153098000D03*
X221930000Y-150558000D03*
X221930000Y-148018000D03*
X221930000Y-145478000D03*
X221930000Y-142938000D03*
X221930000Y-140398000D03*
D27*
X189418000Y-88328000D03*
X191958000Y-88328000D03*
X86548000Y-169354000D03*
X86548000Y-171894000D03*
D17*
X195260000Y-75120000D03*
X195260000Y-85280000D03*
D16*
X92644000Y-153606000D03*
X102804000Y-153606000D03*
X76515000Y-122745000D03*
X76515000Y-112585000D03*
X73975000Y-112585000D03*
X73975000Y-122745000D03*
X102804000Y-156146000D03*
X92644000Y-156146000D03*
D17*
X226756000Y-118300000D03*
X226756000Y-108140000D03*
X189672000Y-93408000D03*
X199832000Y-93408000D03*
X189672000Y-66484000D03*
X199832000Y-66484000D03*
D16*
X61275000Y-105600000D03*
X63815000Y-103060000D03*
X66355000Y-105600000D03*
D21*
X163256000Y-111188000D03*
D22*
X163256000Y-113728000D03*
X163256000Y-116268000D03*
D21*
X92390000Y-131254000D03*
D28*
X94930000Y-131254000D03*
X97470000Y-131254000D03*
X100010000Y-131254000D03*
X102550000Y-131254000D03*
D21*
X92390000Y-134048000D03*
D28*
X94930000Y-134048000D03*
X97470000Y-134048000D03*
X100010000Y-134048000D03*
X102550000Y-134048000D03*
D21*
X92390000Y-136842000D03*
D28*
X94930000Y-136842000D03*
X97470000Y-136842000D03*
X100010000Y-136842000D03*
X102550000Y-136842000D03*
D21*
X169860000Y-33210000D03*
D22*
X169860000Y-35750000D03*
X169860000Y-38290000D03*
X169860000Y-40830000D03*
X169860000Y-43370000D03*
X169860000Y-45910000D03*
X169860000Y-48450000D03*
X169860000Y-50990000D03*
D21*
X158176000Y-109410000D03*
D22*
X158176000Y-111950000D03*
X158176000Y-114490000D03*
X158176000Y-117030000D03*
X158176000Y-119570000D03*
X158176000Y-122110000D03*
X158176000Y-124650000D03*
X158176000Y-127190000D03*
D21*
X158176000Y-134302000D03*
D22*
X158176000Y-136842000D03*
X158176000Y-139382000D03*
X158176000Y-141922000D03*
X158176000Y-144462000D03*
X158176000Y-147002000D03*
X158176000Y-149542000D03*
X158176000Y-152082000D03*
D21*
X109408000Y-134302000D03*
D22*
X109408000Y-136842000D03*
X109408000Y-139382000D03*
X109408000Y-141922000D03*
X109408000Y-144462000D03*
X109408000Y-147002000D03*
X109408000Y-149542000D03*
X109408000Y-152082000D03*
D21*
X109408000Y-109410000D03*
D22*
X109408000Y-111950000D03*
X109408000Y-114490000D03*
X109408000Y-117030000D03*
X109408000Y-119570000D03*
X109408000Y-122110000D03*
X109408000Y-124650000D03*
X109408000Y-127190000D03*
D21*
X226756000Y-140906000D03*
D22*
X226756000Y-138366000D03*
X226756000Y-135826000D03*
X226756000Y-133286000D03*
X226756000Y-130746000D03*
X226756000Y-128206000D03*
X226756000Y-125666000D03*
X226756000Y-123126000D03*
D21*
X148016000Y-109410000D03*
D22*
X148016000Y-111950000D03*
X148016000Y-114490000D03*
X148016000Y-117030000D03*
X148016000Y-119570000D03*
X148016000Y-122110000D03*
X148016000Y-124650000D03*
X148016000Y-127190000D03*
X148016000Y-129730000D03*
D29*
X104455000Y-164655000D03*
X104455000Y-169735000D03*
X91755000Y-164655000D03*
X91755000Y-169735000D03*
D30*
X81072687Y-155892000D03*
X85024000Y-151940687D03*
D10*
G36*
X90748737Y-155892000D02*
X88975313Y-157665424D01*
X87201889Y-155892000D01*
X88975313Y-154118576D01*
X90748737Y-155892000D01*
X90748737Y-155892000D01*
G37*
D30*
X84844395Y-160022918D03*
D31*
X214310000Y-107886000D03*
X214310000Y-110426000D03*
X214310000Y-112966000D03*
X214310000Y-115506000D03*
X214310000Y-118046000D03*
X214310000Y-120586000D03*
X214310000Y-123126000D03*
X214310000Y-125666000D03*
X221930000Y-125666000D03*
X221930000Y-123126000D03*
X221930000Y-120586000D03*
X221930000Y-118046000D03*
X221930000Y-115506000D03*
X221930000Y-112966000D03*
X221930000Y-110426000D03*
X221930000Y-107886000D03*
D32*
X80540000Y-35000000D03*
X83080000Y-35000000D03*
X85620000Y-35000000D03*
X88160000Y-35000000D03*
X90700000Y-35000000D03*
X93240000Y-35000000D03*
X95780000Y-35000000D03*
X98320000Y-35000000D03*
X100860000Y-35000000D03*
X103400000Y-35000000D03*
X105940000Y-35000000D03*
X108480000Y-35000000D03*
X111020000Y-35000000D03*
X113560000Y-35000000D03*
X116100000Y-35000000D03*
X118640000Y-35000000D03*
D33*
X179385000Y-49085000D03*
X181925000Y-49085000D03*
X184465000Y-49085000D03*
X187005000Y-49085000D03*
X189545000Y-49085000D03*
X189545000Y-33845000D03*
X187005000Y-33845000D03*
X184465000Y-33845000D03*
X181925000Y-33845000D03*
X179385000Y-33845000D03*
X192085000Y-49085000D03*
X194625000Y-49085000D03*
X197165000Y-49085000D03*
X199705000Y-49085000D03*
X202245000Y-49085000D03*
X202245000Y-33845000D03*
X199705000Y-33845000D03*
X197165000Y-33845000D03*
X194625000Y-33845000D03*
X192085000Y-33845000D03*
X204785000Y-49085000D03*
X207325000Y-49085000D03*
X209865000Y-49085000D03*
X212405000Y-49085000D03*
X214945000Y-49085000D03*
X214945000Y-33845000D03*
X212405000Y-33845000D03*
X209865000Y-33845000D03*
X207325000Y-33845000D03*
X204785000Y-33845000D03*
X217485000Y-49085000D03*
X220025000Y-49085000D03*
X222565000Y-49085000D03*
X225105000Y-49085000D03*
X227645000Y-49085000D03*
X227645000Y-33845000D03*
X225105000Y-33845000D03*
X222565000Y-33845000D03*
X220025000Y-33845000D03*
X217485000Y-33845000D03*
D16*
X221168000Y-52260000D03*
X221168000Y-62420000D03*
D34*
X233000000Y-170000000D03*
X64000000Y-170000000D03*
X233000000Y-35000000D03*
X64000000Y-35000000D03*
D16*
X135824000Y-169100000D03*
X130744000Y-169100000D03*
X173416000Y-142684000D03*
X178496000Y-142684000D03*
X163256000Y-142684000D03*
X168336000Y-142684000D03*
X183576000Y-142684000D03*
X188656000Y-142684000D03*
X193736000Y-142684000D03*
X198816000Y-142684000D03*
X163256000Y-151320000D03*
X168336000Y-151320000D03*
X173416000Y-151320000D03*
X178496000Y-151320000D03*
X183576000Y-151320000D03*
X188656000Y-151320000D03*
X193736000Y-151320000D03*
X198816000Y-151320000D03*
X163256000Y-159956000D03*
X168336000Y-159956000D03*
X173416000Y-159956000D03*
X178496000Y-159956000D03*
X183576000Y-159956000D03*
X188656000Y-159956000D03*
X193736000Y-159956000D03*
X198816000Y-159956000D03*
X163256000Y-169100000D03*
X168336000Y-169100000D03*
X173416000Y-169100000D03*
X178496000Y-169100000D03*
X183576000Y-169100000D03*
X188656000Y-169100000D03*
X193736000Y-169100000D03*
X198816000Y-169100000D03*
X110932000Y-159956000D03*
X116012000Y-159956000D03*
X110932000Y-169100000D03*
X116012000Y-169100000D03*
D35*
X73588920Y-169608000D03*
D36*
X76388000Y-169608000D03*
X79182000Y-169608000D03*
D37*
X81788040Y-169608000D03*
X70987960Y-169608000D03*
D24*
X75880000Y-137604000D03*
D21*
X75880000Y-135064000D03*
D24*
X75880000Y-132524000D03*
D38*
X69880000Y-139564000D03*
D39*
X69880000Y-130564000D03*
D40*
X209072520Y-81820520D03*
X207071000Y-87820000D03*
X221071480Y-81820520D03*
X221071480Y-93819480D03*
X209072520Y-93819480D03*
X209072520Y-66072520D03*
X207071000Y-72072000D03*
X221071480Y-66072520D03*
X221071480Y-78071480D03*
X209072520Y-78071480D03*
D41*
X169606000Y-88328000D03*
D42*
X177226000Y-88328000D03*
D43*
X87310000Y-144970000D03*
D16*
X84770000Y-144970000D03*
X84770000Y-147510000D03*
X91120000Y-147256000D03*
X101280000Y-147256000D03*
X101280000Y-142176000D03*
X91120000Y-142176000D03*
X101280000Y-144716000D03*
X91120000Y-144716000D03*
X91120000Y-149796000D03*
X101280000Y-149796000D03*
X73406000Y-44450000D03*
X75946000Y-44450000D03*
D43*
X174178000Y-78930000D03*
D15*
X174178000Y-76390000D03*
X171638000Y-76390000D03*
D43*
X230185000Y-56705000D03*
D16*
X227645000Y-56705000D03*
X227645000Y-59245000D03*
D43*
X199070000Y-56070000D03*
D16*
X196530000Y-56070000D03*
X196530000Y-58610000D03*
D43*
X185100000Y-56705000D03*
D16*
X182560000Y-56705000D03*
X182560000Y-59245000D03*
D43*
X214945000Y-56070000D03*
D16*
X212405000Y-56070000D03*
X212405000Y-58610000D03*
D43*
X198562000Y-73850000D03*
D15*
X198562000Y-71310000D03*
X196022000Y-71310000D03*
D43*
X196022000Y-89090000D03*
D15*
X198562000Y-89090000D03*
X198562000Y-86550000D03*
D21*
X104328000Y-124650000D03*
D22*
X104328000Y-122110000D03*
X104328000Y-119570000D03*
X104328000Y-117030000D03*
X104328000Y-114490000D03*
X104328000Y-111950000D03*
X104328000Y-109410000D03*
X104328000Y-106870000D03*
D21*
X104328000Y-87566000D03*
D22*
X104328000Y-90106000D03*
X104328000Y-92646000D03*
X104328000Y-95186000D03*
X104328000Y-97726000D03*
X104328000Y-100266000D03*
X104328000Y-102806000D03*
D17*
X194625000Y-118935000D03*
X194625000Y-129095000D03*
D16*
X68895000Y-84645000D03*
X68895000Y-94805000D03*
X134935000Y-35750000D03*
X124775000Y-35750000D03*
D17*
X197165000Y-129095000D03*
X197165000Y-118935000D03*
D16*
X223835000Y-62420000D03*
X233995000Y-62420000D03*
X208595000Y-62420000D03*
X218755000Y-62420000D03*
X193355000Y-62420000D03*
X203515000Y-62420000D03*
X178115000Y-62420000D03*
X188275000Y-62420000D03*
D27*
X231582000Y-150812000D03*
X234122000Y-150812000D03*
X231582000Y-143192000D03*
X234122000Y-143192000D03*
X231582000Y-135572000D03*
X234122000Y-135572000D03*
X231582000Y-127952000D03*
X234122000Y-127952000D03*
X231582000Y-120332000D03*
X234122000Y-120332000D03*
X231582000Y-112712000D03*
X234122000Y-112712000D03*
D16*
X63180000Y-87820000D03*
X63180000Y-85280000D03*
D15*
X81534000Y-64770000D03*
X84074000Y-64770000D03*
D21*
X108138000Y-77660000D03*
D28*
X105598000Y-77660000D03*
X103058000Y-77660000D03*
X100518000Y-77660000D03*
X97978000Y-77660000D03*
X95438000Y-77660000D03*
X92898000Y-77660000D03*
X90358000Y-77660000D03*
D44*
X216088000Y-169100000D03*
D40*
X221168000Y-169100000D03*
D16*
X66990000Y-77660000D03*
X64450000Y-77660000D03*
X66990000Y-75120000D03*
X64450000Y-75120000D03*
X66990000Y-72580000D03*
X64450000Y-72580000D03*
X66990000Y-70040000D03*
X64450000Y-70040000D03*
X66990000Y-67500000D03*
X64450000Y-67500000D03*
D27*
X189418000Y-72072000D03*
X191958000Y-72072000D03*
X231730000Y-105000000D03*
X234270000Y-105000000D03*
D45*
X190815000Y-120205000D03*
D46*
X188275000Y-120205000D03*
X185735000Y-120205000D03*
X183195000Y-120205000D03*
X183195000Y-127825000D03*
X185735000Y-127825000D03*
X188275000Y-127825000D03*
X190815000Y-127825000D03*
D45*
X176718000Y-120078000D03*
D46*
X174178000Y-120078000D03*
X171638000Y-120078000D03*
X169098000Y-120078000D03*
X169098000Y-127698000D03*
X171638000Y-127698000D03*
X174178000Y-127698000D03*
X176718000Y-127698000D03*
D47*
X178435040Y-106235000D03*
X198435000Y-106235000D03*
D24*
X203388000Y-65976000D03*
D21*
X203388000Y-76136000D03*
X204404000Y-125666000D03*
D22*
X204404000Y-123126000D03*
X204404000Y-120586000D03*
X204404000Y-118046000D03*
X204404000Y-115506000D03*
X204404000Y-112966000D03*
X204404000Y-110426000D03*
X204404000Y-107886000D03*
D44*
X229296000Y-77152000D03*
D40*
X229296000Y-72072000D03*
X229296000Y-66992000D03*
D21*
X86548000Y-77660000D03*
D28*
X84008000Y-77660000D03*
X81468000Y-77660000D03*
D21*
X172146000Y-134048000D03*
D28*
X174686000Y-134048000D03*
X177226000Y-134048000D03*
X179766000Y-134048000D03*
X182306000Y-134048000D03*
X184846000Y-134048000D03*
X187386000Y-134048000D03*
X189926000Y-134048000D03*
D21*
X169860000Y-54800000D03*
D22*
X169860000Y-57340000D03*
X169860000Y-59880000D03*
X169860000Y-62420000D03*
D44*
X229296000Y-92900000D03*
D40*
X229296000Y-87820000D03*
X229296000Y-82740000D03*
D44*
X205420000Y-169100000D03*
D40*
X210500000Y-169100000D03*
D43*
X187132000Y-80962000D03*
D15*
X187132000Y-78422000D03*
D21*
X204912000Y-152590000D03*
D22*
X204912000Y-150050000D03*
X204912000Y-147510000D03*
X204912000Y-144970000D03*
D25*
X80325000Y-89090000D03*
D26*
X80325000Y-91630000D03*
X80325000Y-94170000D03*
X80325000Y-96710000D03*
X80325000Y-99250000D03*
X80325000Y-101790000D03*
X80325000Y-104330000D03*
X80325000Y-106870000D03*
X80325000Y-109410000D03*
X80325000Y-111950000D03*
X80325000Y-114490000D03*
X80325000Y-117030000D03*
X80325000Y-119570000D03*
X80325000Y-122110000D03*
X95565000Y-122110000D03*
X95565000Y-119570000D03*
X95565000Y-117030000D03*
X95565000Y-114490000D03*
X95565000Y-111950000D03*
X95565000Y-109410000D03*
X95565000Y-106870000D03*
X95565000Y-104330000D03*
X95565000Y-101790000D03*
X95565000Y-99250000D03*
X95565000Y-96710000D03*
X95565000Y-94170000D03*
X95565000Y-91630000D03*
X95565000Y-89090000D03*
D45*
X69530000Y-113220000D03*
D46*
X66990000Y-113220000D03*
X64450000Y-113220000D03*
X61910000Y-113220000D03*
X61910000Y-120840000D03*
X64450000Y-120840000D03*
X66990000Y-120840000D03*
X69530000Y-120840000D03*
D21*
X72578000Y-105600000D03*
D22*
X72578000Y-103060000D03*
X72578000Y-100520000D03*
X72578000Y-97980000D03*
X72578000Y-95440000D03*
X72578000Y-92900000D03*
X72578000Y-90360000D03*
X72578000Y-87820000D03*
D16*
X231582000Y-158432000D03*
D27*
X234122000Y-158432000D03*
D43*
X164272000Y-80200000D03*
D16*
X68768000Y-41592000D03*
X78928000Y-41592000D03*
D27*
X65466000Y-41592000D03*
X62926000Y-41592000D03*
D24*
X91186000Y-139700000D03*
D21*
X101346000Y-139700000D03*
D34*
X151000000Y-100000000D03*
X150050500Y-34988500D03*
X150050500Y-65976500D03*
X75057000Y-34988500D03*
M02*
